# xmcd CD database file
#
# Track frame offsets:
#	150
#	14325
#	42938
#	58150
#	75794
#	88755
#	107643
#	140121
#
# Disc length: 2486 seconds
#
# Revision: 0
# Processed by: cddbd v1.5.2PL0 Copyright (c) Steve Scherf et al.
# Submitted via: CDex 1.51
#
DISCID=6109b408
DTITLE=Fausto Palma - Petra Zinat I
DYEAR=1900
DGENRE=Jazz
TTITLE0=Exp
TTITLE1=Electric babas
TTITLE2=Caucasus
TTITLE3=Iokierunte
TTITLE4=El paso del camello
TTITLE5=Reggae, raga, rock
TTITLE6=Zinat
TTITLE7=Noviembre
EXTD=
EXTT0=
EXTT1=
EXTT2=
EXTT3=
EXTT4=
EXTT5=
EXTT6=
EXTT7=
PLAYORDER=
